<mxfile host="app.diagrams.net" agent="Mozilla/5.0 (Windows NT 10.0; Win64; x64) AppleWebKit/537.36 (KHTML, like Gecko) Chrome/141.0.0.0 Safari/537.36" version="28.2.8">
  <diagram name="Page-1" id="iLB-7VbT4nkMyS6kAcd4">
    <mxGraphModel dx="1026" dy="556" grid="1" gridSize="10" guides="1" tooltips="1" connect="1" arrows="1" fold="1" page="1" pageScale="1" pageWidth="827" pageHeight="1169" math="0" shadow="0">
      <root>
        <mxCell id="0" />
        <mxCell id="1" parent="0" />
        <mxCell id="jk9GCURvCcV-V5j69Wua-39" value="" style="rounded=0;whiteSpace=wrap;html=1;fillColor=#f5f5f5;fontColor=#333333;strokeColor=#666666;" vertex="1" parent="1">
          <mxGeometry x="25" y="229" width="140" height="200" as="geometry" />
        </mxCell>
        <mxCell id="jk9GCURvCcV-V5j69Wua-38" value="" style="rounded=0;whiteSpace=wrap;html=1;fillColor=#f5f5f5;fontColor=#333333;strokeColor=#666666;" vertex="1" parent="1">
          <mxGeometry x="80" y="20" width="190" height="60" as="geometry" />
        </mxCell>
        <mxCell id="jk9GCURvCcV-V5j69Wua-19" style="edgeStyle=orthogonalEdgeStyle;rounded=0;orthogonalLoop=1;jettySize=auto;html=1;entryX=0;entryY=0;entryDx=0;entryDy=0;" edge="1" parent="1" source="jk9GCURvCcV-V5j69Wua-1" target="jk9GCURvCcV-V5j69Wua-5">
          <mxGeometry relative="1" as="geometry" />
        </mxCell>
        <mxCell id="jk9GCURvCcV-V5j69Wua-1" value="Node&lt;br&gt;Energy" style="rounded=0;whiteSpace=wrap;html=1;fillColor=#dae8fc;strokeColor=#6c8ebf;fontFamily=Times New Roman;fontSize=13;" vertex="1" parent="1">
          <mxGeometry x="90" y="30" width="50" height="40" as="geometry" />
        </mxCell>
        <mxCell id="jk9GCURvCcV-V5j69Wua-20" style="edgeStyle=orthogonalEdgeStyle;rounded=0;orthogonalLoop=1;jettySize=auto;html=1;exitX=0.5;exitY=1;exitDx=0;exitDy=0;entryX=0.5;entryY=0;entryDx=0;entryDy=0;" edge="1" parent="1" source="jk9GCURvCcV-V5j69Wua-2" target="jk9GCURvCcV-V5j69Wua-5">
          <mxGeometry relative="1" as="geometry" />
        </mxCell>
        <mxCell id="jk9GCURvCcV-V5j69Wua-2" value="Cluster&lt;br&gt;Info" style="rounded=0;whiteSpace=wrap;html=1;fillColor=#dae8fc;strokeColor=#6c8ebf;fontFamily=Times New Roman;fontSize=13;" vertex="1" parent="1">
          <mxGeometry x="150" y="30" width="50" height="40" as="geometry" />
        </mxCell>
        <mxCell id="jk9GCURvCcV-V5j69Wua-21" style="edgeStyle=orthogonalEdgeStyle;rounded=0;orthogonalLoop=1;jettySize=auto;html=1;exitX=0.5;exitY=1;exitDx=0;exitDy=0;entryX=1;entryY=0;entryDx=0;entryDy=0;" edge="1" parent="1" source="jk9GCURvCcV-V5j69Wua-3" target="jk9GCURvCcV-V5j69Wua-5">
          <mxGeometry relative="1" as="geometry" />
        </mxCell>
        <mxCell id="jk9GCURvCcV-V5j69Wua-3" value="PDR" style="rounded=0;whiteSpace=wrap;html=1;fillColor=#dae8fc;strokeColor=#6c8ebf;fontFamily=Times New Roman;fontSize=13;" vertex="1" parent="1">
          <mxGeometry x="210" y="30" width="50" height="40" as="geometry" />
        </mxCell>
        <mxCell id="jk9GCURvCcV-V5j69Wua-25" style="edgeStyle=orthogonalEdgeStyle;rounded=0;orthogonalLoop=1;jettySize=auto;html=1;exitX=1;exitY=0.5;exitDx=0;exitDy=0;entryX=0.5;entryY=0;entryDx=0;entryDy=0;" edge="1" parent="1" source="jk9GCURvCcV-V5j69Wua-5" target="jk9GCURvCcV-V5j69Wua-7">
          <mxGeometry relative="1" as="geometry" />
        </mxCell>
        <mxCell id="jk9GCURvCcV-V5j69Wua-5" value="&lt;font style=&quot;font-size: 13px;&quot; face=&quot;Times New Roman&quot;&gt;Choose&lt;br&gt;Action&lt;/font&gt;" style="rhombus;whiteSpace=wrap;html=1;fillColor=#fff2cc;strokeColor=#d6b656;" vertex="1" parent="1">
          <mxGeometry x="135" y="93" width="80" height="80" as="geometry" />
        </mxCell>
        <mxCell id="jk9GCURvCcV-V5j69Wua-26" style="edgeStyle=orthogonalEdgeStyle;rounded=0;orthogonalLoop=1;jettySize=auto;html=1;entryX=0;entryY=0.25;entryDx=0;entryDy=0;" edge="1" parent="1" source="jk9GCURvCcV-V5j69Wua-6" target="jk9GCURvCcV-V5j69Wua-8">
          <mxGeometry relative="1" as="geometry">
            <Array as="points">
              <mxPoint x="20" y="205" />
              <mxPoint x="20" y="242" />
            </Array>
          </mxGeometry>
        </mxCell>
        <mxCell id="jk9GCURvCcV-V5j69Wua-27" style="edgeStyle=orthogonalEdgeStyle;rounded=0;orthogonalLoop=1;jettySize=auto;html=1;entryX=0;entryY=0.5;entryDx=0;entryDy=0;" edge="1" parent="1" source="jk9GCURvCcV-V5j69Wua-6" target="jk9GCURvCcV-V5j69Wua-9">
          <mxGeometry relative="1" as="geometry">
            <Array as="points">
              <mxPoint x="20" y="205" />
              <mxPoint x="20" y="289" />
            </Array>
          </mxGeometry>
        </mxCell>
        <mxCell id="jk9GCURvCcV-V5j69Wua-28" style="edgeStyle=orthogonalEdgeStyle;rounded=0;orthogonalLoop=1;jettySize=auto;html=1;entryX=0;entryY=0.5;entryDx=0;entryDy=0;" edge="1" parent="1" source="jk9GCURvCcV-V5j69Wua-6" target="jk9GCURvCcV-V5j69Wua-10">
          <mxGeometry relative="1" as="geometry">
            <Array as="points">
              <mxPoint x="20" y="205" />
              <mxPoint x="20" y="329" />
            </Array>
          </mxGeometry>
        </mxCell>
        <mxCell id="jk9GCURvCcV-V5j69Wua-29" style="edgeStyle=orthogonalEdgeStyle;rounded=0;orthogonalLoop=1;jettySize=auto;html=1;entryX=0;entryY=0.5;entryDx=0;entryDy=0;" edge="1" parent="1" source="jk9GCURvCcV-V5j69Wua-6" target="jk9GCURvCcV-V5j69Wua-12">
          <mxGeometry relative="1" as="geometry">
            <Array as="points">
              <mxPoint x="20" y="205" />
              <mxPoint x="20" y="369" />
            </Array>
          </mxGeometry>
        </mxCell>
        <mxCell id="jk9GCURvCcV-V5j69Wua-30" style="edgeStyle=orthogonalEdgeStyle;rounded=0;orthogonalLoop=1;jettySize=auto;html=1;entryX=0;entryY=0.5;entryDx=0;entryDy=0;" edge="1" parent="1" source="jk9GCURvCcV-V5j69Wua-6" target="jk9GCURvCcV-V5j69Wua-11">
          <mxGeometry relative="1" as="geometry">
            <Array as="points">
              <mxPoint x="20" y="205" />
              <mxPoint x="20" y="409" />
            </Array>
          </mxGeometry>
        </mxCell>
        <mxCell id="jk9GCURvCcV-V5j69Wua-6" value="&lt;font style=&quot;font-size: 13px;&quot; face=&quot;Times New Roman&quot;&gt;Best Known Action&lt;/font&gt;" style="rounded=0;whiteSpace=wrap;html=1;fillColor=#e1d5e7;strokeColor=#9673a6;" vertex="1" parent="1">
          <mxGeometry x="40" y="190" width="120" height="30" as="geometry" />
        </mxCell>
        <mxCell id="jk9GCURvCcV-V5j69Wua-32" style="edgeStyle=orthogonalEdgeStyle;rounded=0;orthogonalLoop=1;jettySize=auto;html=1;entryX=1;entryY=0.5;entryDx=0;entryDy=0;" edge="1" parent="1" source="jk9GCURvCcV-V5j69Wua-7" target="jk9GCURvCcV-V5j69Wua-14">
          <mxGeometry relative="1" as="geometry">
            <Array as="points">
              <mxPoint x="255" y="470" />
            </Array>
          </mxGeometry>
        </mxCell>
        <mxCell id="jk9GCURvCcV-V5j69Wua-48" value="&lt;font face=&quot;Times New Roman&quot;&gt;Greedy&lt;br&gt;Epsilon&lt;/font&gt;" style="edgeLabel;html=1;align=center;verticalAlign=middle;resizable=0;points=[];" vertex="1" connectable="0" parent="jk9GCURvCcV-V5j69Wua-32">
          <mxGeometry x="-0.2395" y="1" relative="1" as="geometry">
            <mxPoint x="-1" as="offset" />
          </mxGeometry>
        </mxCell>
        <mxCell id="jk9GCURvCcV-V5j69Wua-7" value="&lt;font style=&quot;font-size: 13px;&quot; face=&quot;Times New Roman&quot;&gt;Take Random Action&lt;/font&gt;" style="rounded=0;whiteSpace=wrap;html=1;fillColor=#e1d5e7;strokeColor=#9673a6;" vertex="1" parent="1">
          <mxGeometry x="190" y="190" width="120" height="30" as="geometry" />
        </mxCell>
        <mxCell id="jk9GCURvCcV-V5j69Wua-8" value="A_NOOP" style="rounded=0;whiteSpace=wrap;html=1;fillColor=#d5e8d4;strokeColor=#82b366;fontFamily=Times New Roman;fontSize=13;" vertex="1" parent="1">
          <mxGeometry x="40" y="234" width="60" height="30" as="geometry" />
        </mxCell>
        <mxCell id="jk9GCURvCcV-V5j69Wua-9" value="A_REASSIGN_FEW" style="rounded=0;whiteSpace=wrap;html=1;fillColor=#d5e8d4;strokeColor=#82b366;fontFamily=Times New Roman;fontSize=13;" vertex="1" parent="1">
          <mxGeometry x="40" y="274" width="120" height="30" as="geometry" />
        </mxCell>
        <mxCell id="jk9GCURvCcV-V5j69Wua-10" value="A_SWITCH_CH" style="rounded=0;whiteSpace=wrap;html=1;fillColor=#d5e8d4;strokeColor=#82b366;fontFamily=Times New Roman;fontSize=13;" vertex="1" parent="1">
          <mxGeometry x="40" y="314" width="100" height="30" as="geometry" />
        </mxCell>
        <mxCell id="jk9GCURvCcV-V5j69Wua-49" style="edgeStyle=orthogonalEdgeStyle;rounded=0;orthogonalLoop=1;jettySize=auto;html=1;entryX=0;entryY=0.5;entryDx=0;entryDy=0;" edge="1" parent="1" source="jk9GCURvCcV-V5j69Wua-11" target="jk9GCURvCcV-V5j69Wua-14">
          <mxGeometry relative="1" as="geometry" />
        </mxCell>
        <mxCell id="jk9GCURvCcV-V5j69Wua-11" value="A_INCREASE_TX" style="rounded=0;whiteSpace=wrap;html=1;fillColor=#d5e8d4;strokeColor=#82b366;fontFamily=Times New Roman;fontSize=13;" vertex="1" parent="1">
          <mxGeometry x="40" y="394" width="110" height="30" as="geometry" />
        </mxCell>
        <mxCell id="jk9GCURvCcV-V5j69Wua-12" value="A_REDUCE_TX" style="rounded=0;whiteSpace=wrap;html=1;fillColor=#d5e8d4;strokeColor=#82b366;fontFamily=Times New Roman;fontSize=13;" vertex="1" parent="1">
          <mxGeometry x="40" y="354" width="100" height="30" as="geometry" />
        </mxCell>
        <mxCell id="jk9GCURvCcV-V5j69Wua-14" value="&lt;font style=&quot;font-size: 13px;&quot; face=&quot;Times New Roman&quot;&gt;Receive&lt;br&gt;Reward&lt;/font&gt;" style="rounded=0;whiteSpace=wrap;html=1;fillColor=#f8cecc;strokeColor=#b85450;" vertex="1" parent="1">
          <mxGeometry x="115" y="450" width="120" height="40" as="geometry" />
        </mxCell>
        <mxCell id="jk9GCURvCcV-V5j69Wua-35" style="edgeStyle=orthogonalEdgeStyle;rounded=0;orthogonalLoop=1;jettySize=auto;html=1;entryX=0.5;entryY=0;entryDx=0;entryDy=0;" edge="1" parent="1" source="jk9GCURvCcV-V5j69Wua-16" target="jk9GCURvCcV-V5j69Wua-17">
          <mxGeometry relative="1" as="geometry" />
        </mxCell>
        <mxCell id="jk9GCURvCcV-V5j69Wua-16" value="&lt;font face=&quot;Times New Roman&quot;&gt;&lt;span style=&quot;font-size: 13px;&quot;&gt;Update Q-Table&lt;/span&gt;&lt;/font&gt;" style="rounded=0;whiteSpace=wrap;html=1;fillColor=#ffe6cc;strokeColor=#d79b00;" vertex="1" parent="1">
          <mxGeometry x="120" y="520" width="120" height="40" as="geometry" />
        </mxCell>
        <mxCell id="jk9GCURvCcV-V5j69Wua-36" style="edgeStyle=orthogonalEdgeStyle;rounded=0;orthogonalLoop=1;jettySize=auto;html=1;entryX=0.5;entryY=0;entryDx=0;entryDy=0;" edge="1" parent="1" source="jk9GCURvCcV-V5j69Wua-17" target="jk9GCURvCcV-V5j69Wua-18">
          <mxGeometry relative="1" as="geometry" />
        </mxCell>
        <mxCell id="jk9GCURvCcV-V5j69Wua-41" value="&lt;font face=&quot;Times New Roman&quot;&gt;YES&lt;/font&gt;" style="edgeLabel;html=1;align=center;verticalAlign=middle;resizable=0;points=[];" vertex="1" connectable="0" parent="jk9GCURvCcV-V5j69Wua-36">
          <mxGeometry x="-0.325" y="3" relative="1" as="geometry">
            <mxPoint as="offset" />
          </mxGeometry>
        </mxCell>
        <mxCell id="jk9GCURvCcV-V5j69Wua-40" style="edgeStyle=orthogonalEdgeStyle;rounded=0;orthogonalLoop=1;jettySize=auto;html=1;entryX=1;entryY=0.5;entryDx=0;entryDy=0;" edge="1" parent="1" source="jk9GCURvCcV-V5j69Wua-17" target="jk9GCURvCcV-V5j69Wua-38">
          <mxGeometry relative="1" as="geometry">
            <Array as="points">
              <mxPoint x="320" y="640" />
              <mxPoint x="320" y="50" />
            </Array>
          </mxGeometry>
        </mxCell>
        <mxCell id="jk9GCURvCcV-V5j69Wua-45" value="&lt;font face=&quot;Times New Roman&quot;&gt;NO&lt;/font&gt;" style="edgeLabel;html=1;align=center;verticalAlign=middle;resizable=0;points=[];" vertex="1" connectable="0" parent="jk9GCURvCcV-V5j69Wua-40">
          <mxGeometry x="-0.8523" relative="1" as="geometry">
            <mxPoint as="offset" />
          </mxGeometry>
        </mxCell>
        <mxCell id="jk9GCURvCcV-V5j69Wua-17" value="&lt;font face=&quot;Times New Roman&quot;&gt;&lt;span style=&quot;font-size: 13px;&quot;&gt;Terminal&lt;br&gt;State&lt;/span&gt;&lt;/font&gt;" style="rhombus;whiteSpace=wrap;html=1;fillColor=#fff2cc;strokeColor=#d6b656;" vertex="1" parent="1">
          <mxGeometry x="140" y="585" width="80" height="80" as="geometry" />
        </mxCell>
        <mxCell id="jk9GCURvCcV-V5j69Wua-18" value="&lt;font style=&quot;font-size: 13px;&quot; face=&quot;Times New Roman&quot;&gt;END&lt;/font&gt;" style="ellipse;whiteSpace=wrap;html=1;aspect=fixed;fillColor=#d0cee2;strokeColor=#56517e;" vertex="1" parent="1">
          <mxGeometry x="160" y="710" width="40" height="40" as="geometry" />
        </mxCell>
        <mxCell id="jk9GCURvCcV-V5j69Wua-24" style="edgeStyle=orthogonalEdgeStyle;rounded=0;orthogonalLoop=1;jettySize=auto;html=1;exitX=0;exitY=0.5;exitDx=0;exitDy=0;entryX=0.456;entryY=-0.078;entryDx=0;entryDy=0;entryPerimeter=0;" edge="1" parent="1" source="jk9GCURvCcV-V5j69Wua-5" target="jk9GCURvCcV-V5j69Wua-6">
          <mxGeometry relative="1" as="geometry" />
        </mxCell>
        <mxCell id="jk9GCURvCcV-V5j69Wua-34" style="edgeStyle=orthogonalEdgeStyle;rounded=0;orthogonalLoop=1;jettySize=auto;html=1;entryX=0.456;entryY=-0.017;entryDx=0;entryDy=0;entryPerimeter=0;" edge="1" parent="1" source="jk9GCURvCcV-V5j69Wua-14" target="jk9GCURvCcV-V5j69Wua-16">
          <mxGeometry relative="1" as="geometry" />
        </mxCell>
      </root>
    </mxGraphModel>
  </diagram>
</mxfile>
